<?xml version="1.0" encoding="utf-8"?>
<svg viewBox="0 0 300 250" xmlns="http://www.w3.org/2000/svg">
  <g id="symbol" featurekey="symbol" transform="matrix(1.127141, 0, 0, 1.127141, -554.535583, -13.106507)" fill="#111111">
    <g xmlns="http://www.w3.org/2000/svg">
      <path d="M631.436,87.151h-0.387c-4.505,0-8.17-3.665-8.17-8.17V21.019c0-1.748-1.422-3.169-3.169-3.169h-0.458   c-1.747,0-3.169,1.422-3.169,3.169v57.963c0,4.505-3.665,8.17-8.17,8.17h-0.458c-4.504,0-8.169-3.665-8.169-8.17V59.488   c0-1.748-1.422-3.17-3.17-3.17h-15.059v-5h15.059c4.505,0,8.17,3.665,8.17,8.17v19.493c0,1.748,1.422,3.17,3.169,3.17h0.458   c1.748,0,3.17-1.422,3.17-3.17V21.019c0-4.505,3.665-8.169,8.169-8.169h0.458c4.504,0,8.169,3.665,8.169,8.169v57.963   c0,1.748,1.422,3.17,3.17,3.17h0.387c1.748,0,3.17-1.422,3.17-3.17V21.019c0-4.505,3.665-8.169,8.169-8.169h0.388   c4.505,0,8.17,3.665,8.17,8.169v25.927c0,1.748,1.422,3.169,3.169,3.169h15.275v5h-15.275c-4.504,0-8.169-3.665-8.169-8.169V21.019   c0-1.748-1.422-3.169-3.17-3.169h-0.388c-1.747,0-3.169,1.422-3.169,3.169v57.963C639.605,83.486,635.94,87.151,631.436,87.151z"/>
    </g>
  </g>
  <g id="name" featurekey="name" transform="matrix(4.206394, 0, 0, 4.206394, -6.332577, 52.376709)" fill="#111111">
    <path d="M11.8 21.56 c-4.72 0 -8.36 3.64 -8.36 8.44 c0 4.76 3.64 8.4 8.36 8.4 c4.8 0 8.36 -3.68 8.36 -8.4 c0 -4.76 -3.56 -8.44 -8.36 -8.44 z M11.92 40.28 c-3.84 0 -6.72 -1.76 -8.36 -4.24 l0 10.92 l-1.96 0 l0 -26.96 l1.96 0 l0 3.92 c1.64 -2.48 4.52 -4.24 8.36 -4.24 c5.72 0 10.2 4.48 10.2 10.28 c0 5.84 -4.48 10.32 -10.2 10.32 z M35.04 40.28 c-3.92 0 -6.72 -1.76 -8.36 -4.24 l0 3.92 l-1.96 0 l0 -27.36 l1.96 0 l0 11.32 c1.64 -2.48 4.52 -4.24 8.36 -4.24 c5.72 0 10.2 4.48 10.2 10.32 c0 5.8 -4.48 10.28 -10.2 10.28 z M34.92 38.4 c4.8 0 8.36 -3.68 8.36 -8.44 c0 -4.72 -3.56 -8.4 -8.36 -8.4 c-4.72 0 -8.36 3.64 -8.36 8.4 c0 4.8 3.64 8.44 8.36 8.44 z M49.800000000000004 14.719999999999999 l-1.96 0 l0 -2.12 l1.96 0 l0 2.12 z M49.800000000000004 40 l-1.96 0 l0 -20 l1.96 0 l0 20 z M62.720000000000006 38.4 c4.72 0 8.36 -3.64 8.36 -8.44 c0 -4.76 -3.64 -8.4 -8.36 -8.4 c-4.8 0 -8.36 3.68 -8.36 8.4 c0 4.76 3.56 8.44 8.36 8.44 z M70.96000000000001 39.96 l0 -3.92 c-1.64 2.48 -4.44 4.24 -8.36 4.24 c-5.72 0 -10.2 -4.48 -10.2 -10.28 c0 -5.84 4.48 -10.32 10.2 -10.32 c3.84 0 6.72 1.76 8.36 4.24 l0 -11.32 l1.96 0 l0 27.36 l-1.96 0 z"/>
  </g>
</svg>